<?xml version="1.0" encoding="utf-8"?>
<!-- Generator: Adobe Illustrator 27.8.1, SVG Export Plug-In . SVG Version: 6.00 Build 0)  -->
<svg version="1.1" id="Capa_1" xmlns="http://www.w3.org/2000/svg" xmlns:xlink="http://www.w3.org/1999/xlink" x="0px" y="0px"
	 viewBox="0 0 493.31 138.79" style="enable-background:new 0 0 493.31 138.79;" xml:space="preserve">
<style type="text/css">
	.st0{fill:none;stroke:#FFFFFF;stroke-width:0.5;stroke-miterlimit:10;}
</style>
<g>
	<path class="st0" d="M76.15,119.61H19.96V92.29v-8.33h44.18c2.32,0,4.13-0.74,5.43-2.23c1.29-1.48,1.94-3.58,1.94-6.3
		c0-1.68-0.23-3.23-0.68-4.65c-0.45-1.42-0.94-2.52-1.45-3.29H19.96v-6.01V34.94h49.99c2.33,0,4.13-0.77,5.43-2.33
		c1.29-1.55,1.94-3.68,1.94-6.39c0-1.68-0.23-3.23-0.68-4.65c-0.45-1.42-0.94-2.52-1.45-3.29H10.85c-3.23,0-5.85,1-7.85,3
		c-2,2-3,4.68-3,8.04v32.16V92.1v33.13c0,3.23,1,5.88,3,7.94c2,2.07,4.62,3.1,7.85,3.1h60.07c2.33,0,4.13-0.77,5.43-2.33
		c1.29-1.55,1.94-3.68,1.94-6.39c0-1.68-0.23-3.23-0.68-4.65C77.15,121.48,76.66,120.38,76.15,119.61z"/>
	<path class="st0" d="M107.63,10.81c-1.74-1.36-4.49-2.03-8.23-2.03c-1.81,0-3.55,0.19-5.23,0.58c-1.68,0.39-2.91,0.71-3.68,0.97
		v74.6v9.88v33.33c0,3.23,0.87,5.56,2.62,6.98c1.74,1.42,4.42,2.13,8.04,2.13c1.94,0,3.75-0.19,5.43-0.58
		c1.68-0.39,2.91-0.71,3.68-0.97V96.55v-9.88V17.88C110.25,14.53,109.38,12.17,107.63,10.81z"/>
	<path class="st0" d="M295.39,46.27c-1.74-1.36-4.49-2.03-8.23-2.03c-1.81,0-3.55,0.19-5.23,0.58c-1.68,0.39-2.97,0.71-3.88,0.97
		V85.7v9.69v22.86c-1.68,1.04-4.14,2.04-7.36,3c-3.23,0.97-7.17,1.45-11.82,1.45c-6.98,0-12.43-1.65-16.37-4.94
		c-3.94-3.29-5.91-8.69-5.91-16.18v-6.2V85.7V53.54c0-3.49-0.87-5.91-2.62-7.27c-1.74-1.36-4.43-2.03-8.04-2.03
		c-1.94,0-3.75,0.19-5.43,0.58c-1.68,0.39-2.97,0.71-3.88,0.97V85.7v9.69v6.78c0,8.4,1.68,15.31,5.04,20.73
		c3.36,5.43,8.2,9.43,14.53,12.01c6.33,2.58,13.82,3.88,22.48,3.88c7.36,0,13.82-0.78,19.38-2.33c5.55-1.55,9.95-3.29,13.18-5.23
		c2.71-1.68,4.52-3.42,5.43-5.23c0.9-1.81,1.36-4.13,1.36-6.97V95.39V85.7V53.54C298,50.05,297.13,47.63,295.39,46.27z"/>
	<path class="st0" d="M351.68,82.99l-11.43-2.91c-4.26-0.9-7.3-2.29-9.11-4.17c-1.81-1.87-2.71-4.04-2.71-6.49
		c0-3.49,1.58-6.17,4.75-8.04c3.16-1.87,7.46-2.81,12.89-2.81c3.49,0,6.88,0.39,10.17,1.16s6.23,1.74,8.82,2.91
		c2.58,1.16,4.65,2.2,6.2,3.1c1.42-0.78,2.58-1.94,3.49-3.49c0.9-1.55,1.36-3.29,1.36-5.23c0-2.71-1.33-5.16-3.97-7.36
		c-2.65-2.19-6.33-3.91-11.04-5.13c-4.72-1.23-10.11-1.84-16.18-1.84c-11.76,0-20.7,2.59-26.84,7.75c-6.14,5.17-9.2,11.5-9.2,18.99
		c0,6.72,2.06,12.21,6.2,16.47c4.13,4.26,10.53,7.36,19.18,9.3l13.56,3.49c4.13,1.04,7.23,2.55,9.3,4.55c2.07,2,3.1,4.68,3.1,8.04
		c0,7.75-6.07,11.63-18.21,11.63c-5.94,0-11.27-0.97-15.99-2.91c-4.72-1.94-8.88-4.07-12.5-6.39c-1.68,1.04-3,2.36-3.97,3.97
		c-0.97,1.62-1.45,3.39-1.45,5.33c0,4.39,3.23,8.14,9.69,11.24c6.46,3.1,14.73,4.65,24.8,4.65c12.14,0,21.41-2.46,27.81-7.36
		c6.39-4.91,9.59-11.69,9.59-20.35c0-7.36-2.29-13.34-6.88-17.92C368.5,88.58,361.36,85.19,351.68,82.99z"/>
	<path class="st0" d="M407.77,66.96c-1.74-1.36-4.43-2.03-8.04-2.03c-1.94,0-3.75,0.16-5.42,0.48c-1.68,0.32-2.97,0.61-3.88,0.87
		v18.64v9.88v33.33c0,3.23,0.9,5.56,2.71,6.98c1.81,1.42,4.52,2.13,8.14,2.13c1.94,0,3.71-0.19,5.33-0.58
		c1.61-0.39,2.87-0.71,3.78-0.97V94.81v-9.88V74.04C410.38,70.68,409.51,68.32,407.77,66.96z"/>
	<path class="st0" d="M486.44,93.16c-4.59-4.58-11.72-7.97-21.41-10.17l-11.43-2.91c-4.26-0.9-7.3-2.29-9.11-4.17
		c-1.81-1.87-2.71-4.04-2.71-6.49c0-3.49,1.58-6.17,4.75-8.04c3.16-1.87,7.46-2.81,12.89-2.81c3.49,0,6.88,0.39,10.17,1.16
		s6.23,1.74,8.82,2.91c2.58,1.16,4.65,2.2,6.2,3.1c1.42-0.78,2.58-1.94,3.49-3.49c0.9-1.55,1.36-3.29,1.36-5.23
		c0-2.71-1.33-5.16-3.97-7.36c-2.65-2.19-6.33-3.91-11.04-5.13c-4.72-1.23-10.11-1.84-16.18-1.84c-11.76,0-20.7,2.59-26.84,7.75
		c-6.14,5.17-9.2,11.5-9.2,18.99c0,6.72,2.07,12.21,6.2,16.47c4.13,4.26,10.53,7.36,19.18,9.3l13.56,3.49
		c4.13,1.04,7.23,2.55,9.3,4.55c2.07,2,3.1,4.68,3.1,8.04c0,7.75-6.07,11.63-18.21,11.63c-5.94,0-11.27-0.97-15.99-2.91
		c-4.72-1.94-8.88-4.07-12.5-6.39c-1.68,1.04-3,2.36-3.97,3.97c-0.97,1.62-1.45,3.39-1.45,5.33c0,4.39,3.23,8.14,9.69,11.24
		c6.46,3.1,14.73,4.65,24.8,4.65c12.14,0,21.41-2.46,27.81-7.36c6.39-4.91,9.59-11.69,9.59-20.35
		C493.31,103.72,491.02,97.75,486.44,93.16z"/>
	<path class="st0" d="M207.61,79.69c-0.05-0.75-0.11-1.5-0.2-2.23c-0.03-0.28-0.07-0.55-0.11-0.83c-0.07-0.51-0.15-1.02-0.23-1.53
		c-0.08-0.51-0.18-1-0.28-1.5c-0.07-0.36-0.15-0.71-0.23-1.06c-0.22-0.94-0.46-1.86-0.74-2.76c0,0,0,0,0,0
		c-0.17-0.54-0.35-1.07-0.54-1.6c-0.08-0.22-0.16-0.45-0.24-0.67c-0.17-0.45-0.34-0.89-0.53-1.33c-0.15-0.36-0.31-0.71-0.47-1.07
		c-0.15-0.33-0.3-0.65-0.45-0.98c-0.34-0.7-0.7-1.39-1.09-2.07c-3.49-6.07-8.36-10.82-14.63-14.24c-6.27-3.42-13.47-5.13-21.6-5.13
		c-6.2,0-12.01,1.04-17.44,3.1c-5.43,2.07-10.14,5.1-14.14,9.11c-4.01,4.01-7.14,8.95-9.4,14.82c-2.26,5.88-3.39,12.63-3.39,20.25
		c0,10.59,2.06,19.54,6.2,26.84c4.13,7.3,9.95,12.79,17.44,16.47c7.49,3.68,16.21,5.52,26.16,5.52c6.07,0,11.53-0.65,16.37-1.94
		c4.84-1.29,8.69-3.1,11.53-5.43c2.84-2.33,4.26-4.91,4.26-7.75c0-1.81-0.48-3.49-1.45-5.04s-2.23-2.78-3.78-3.68
		c-2.71,1.94-6.33,3.75-10.85,5.42c-4.52,1.68-9.49,2.52-14.92,2.52c-9.04,0-16.34-2.29-21.9-6.88c-4.3-3.55-7.23-8.48-8.82-14.77
		c-0.22-0.11-0.43-0.2-0.65-0.27c0.31-0.14,0.62-0.28,0.93-0.41c0.28-0.12,0.57-0.24,0.86-0.36c1.16-0.48,2.34-0.96,3.54-1.43
		c0.29-0.11,0.57-0.23,0.86-0.34c2.92-1.12,5.94-2.2,9.05-3.22c0.32-0.11,0.65-0.21,0.97-0.31c1.24-0.4,2.49-0.79,3.75-1.17
		c0.4-0.12,0.8-0.24,1.21-0.36c1.39-0.41,2.8-0.81,4.22-1.2c0.2-0.05,0.4-0.11,0.6-0.17c1.64-0.44,3.3-0.87,4.98-1.29
		c0.34-0.08,0.69-0.16,1.03-0.25c1.33-0.32,2.66-0.64,4.01-0.94c0.5-0.11,1-0.22,1.5-0.33c1.31-0.29,2.64-0.56,3.97-0.83
		c0.42-0.08,0.83-0.17,1.25-0.26c1.73-0.34,3.48-0.67,5.25-0.98c0.29-0.05,0.59-0.1,0.88-0.15c1.48-0.26,2.97-0.5,4.47-0.74
		c0.56-0.09,1.13-0.17,1.69-0.26c1.31-0.2,2.62-0.38,3.94-0.56c0.55-0.07,1.09-0.15,1.65-0.22c1.83-0.24,3.67-0.47,5.53-0.67
		c0.06-0.55,0.09-1.12,0.09-1.74c0-0.85-0.03-1.69-0.07-2.52C207.63,80.08,207.62,79.88,207.61,79.69z M183.69,72.88
		c-0.49,0.09-0.98,0.17-1.47,0.26c-1.35,0.25-2.69,0.52-4.02,0.79c-0.62,0.13-1.25,0.25-1.86,0.38c-1.26,0.26-2.51,0.54-3.75,0.82
		c-0.67,0.15-1.34,0.3-2,0.46c-1.2,0.28-2.39,0.57-3.57,0.86c-0.68,0.17-1.36,0.35-2.04,0.52c-1.15,0.3-2.3,0.6-3.43,0.91
		c-0.67,0.19-1.33,0.38-2,0.57c-1.12,0.32-2.24,0.64-3.33,0.97c-0.62,0.19-1.22,0.39-1.84,0.58c-3.71,1.17-7.3,2.41-10.76,3.72
		c-0.73,0.28-1.46,0.55-2.18,0.83c-0.19,0.08-0.39,0.15-0.58,0.22c0.04-0.53,0.07-1.08,0.12-1.6c0-0.04,0.01-0.08,0.01-0.12
		c0.11-0.96,0.24-1.9,0.41-2.81c0.01-0.07,0.02-0.14,0.04-0.21c0.16-0.87,0.35-1.71,0.56-2.53c0.03-0.1,0.05-0.21,0.08-0.31
		c0.21-0.77,0.44-1.51,0.69-2.24c0.05-0.13,0.09-0.27,0.14-0.41c0.24-0.68,0.52-1.32,0.8-1.96c0.07-0.16,0.14-0.33,0.21-0.49
		c0.28-0.59,0.59-1.16,0.91-1.72c0.1-0.17,0.19-0.36,0.29-0.53c0.32-0.54,0.68-1.05,1.04-1.56c0.12-0.16,0.22-0.34,0.34-0.5
		c0.49-0.65,1-1.27,1.55-1.86c4.78-5.16,10.78-7.75,18.02-7.75c7.1,0,12.59,2.03,16.47,6.1c0.53,0.56,1.02,1.13,1.49,1.73
		c0.09,0.11,0.16,0.23,0.25,0.35c0.38,0.51,0.75,1.03,1.08,1.56c0.05,0.09,0.1,0.18,0.16,0.26c0.36,0.59,0.69,1.19,0.99,1.82
		c0.02,0.04,0.04,0.08,0.05,0.11c0.33,0.68,0.62,1.38,0.88,2.1c0,0,0,0,0,0C186.16,72.43,184.93,72.66,183.69,72.88z M187.43,72.23
		c0,0,0-0.01,0-0.01C187.42,72.22,187.43,72.23,187.43,72.23C187.43,72.23,187.43,72.23,187.43,72.23z"/>
	<path class="st0" d="M399.57,0c0,4.8-21.34,29.09-25.56,29.09c4.22,0,25.56,24.29,25.56,29.09c0-4.8,21.34-29.09,25.56-29.09
		C420.92,29.09,399.57,4.8,399.57,0z M399.57,35.02c0-0.98-4.35-5.93-5.21-5.93c0.86,0,5.21-4.95,5.21-5.93
		c0,0.98,4.35,5.93,5.21,5.93C403.92,29.09,399.57,34.04,399.57,35.02z"/>
</g>
</svg>
